<?xml version="1.0" encoding="UTF-8" standalone="no"?>
<!DOCTYPE svg PUBLIC "-//W3C//DTD SVG 1.1//EN" "http://www.w3.org/Graphics/SVG/1.1/DTD/svg11.dtd">
<svg width="100%" height="100%" viewBox="0 0 16 16" version="1.1" xmlns="http://www.w3.org/2000/svg" xmlns:xlink="http://www.w3.org/1999/xlink" xml:space="preserve" xmlns:serif="http://www.serif.com/" style="fill-rule:evenodd;clip-rule:evenodd;stroke-linejoin:round;stroke-miterlimit:2;">
    <g id="Capa_1" transform="matrix(0.0255258,0,0,0.0255258,0.612403,0.852226)">
        <circle cx="283.5" cy="283.5" r="283.5" style="fill:rgb(86,88,221);"/>
    </g>
    <g id="Capa_2" transform="matrix(0.0255258,0,0,0.0255258,0.612403,0.852226)">
        <g>
            <g>
                <path d="M283.3,132.1C184.8,132.1 105,211.9 105,310.4C105,379.5 144.4,439.4 201.9,469C214.2,435 246.8,410.6 285.1,410.6C322.8,410.6 355,434.2 367.7,467.4C423.6,437.3 461.6,378.3 461.6,310.3C461.5,211.9 381.7,132.1 283.3,132.1Z" style="fill:white;fill-rule:nonzero;"/>
                <path d="M489.9,221.1C489.8,220.7 489.6,220.4 489.5,220C477.4,211.7 463.4,205.8 448.4,203C468.5,233.9 480.2,270.7 480.2,310.3C480.2,349.6 468.7,386.2 448.8,417C450.1,416.8 451.3,416.4 452.6,416.1L452.5,416.2C453.3,416 454.2,415.8 455,415.6C455.3,415.5 455.6,415.4 455.9,415.4C458,414.8 460,414.2 462,413.6L462.1,413.6C505.2,399.2 536.3,358.5 536.3,310.5C536.5,273.4 518.1,240.8 489.9,221.1Z" style="fill:white;fill-rule:nonzero;"/>
                <path d="M86.2,310.3C86.2,270.9 97.8,234.2 117.8,203.4C101.7,206.7 86.9,213.6 74.3,223.1C73.6,223.6 72.9,224.1 72.2,224.7C53.9,239.2 40.4,259.5 34.3,282.7L34,282.7C31.7,291.5 30.4,300.8 30.4,310.3C30.4,358.1 61.2,398.6 104.1,413.2C104.3,413.3 104.4,413.3 104.6,413.4C106.5,414 108.4,414.6 110.4,415.2C110.6,415.2 110.8,415.3 110.9,415.4C111.2,415.5 111.5,415.6 111.8,415.7C113.7,416.2 115.6,416.7 117.5,417C97.7,386.2 86.2,349.6 86.2,310.3Z" style="fill:white;fill-rule:nonzero;"/>
                <path d="M283.3,72C194.2,72 117.7,125.6 84,202.2C97.5,194.1 113,188.8 129.5,187.2C165.6,142.2 221.1,113.3 283.3,113.3C345.5,113.3 400.9,142.1 437,187.1C453.3,188.4 468.5,193.3 482,201C448,125 371.9,72 283.3,72Z" style="fill:white;fill-rule:nonzero;"/>
            </g>
        </g>
    </g>
</svg>
