<?xml version="1.0" encoding="UTF-8" standalone="no"?>
<svg
   fill="none"
   viewBox="0 0 24 24"
   stroke-width="1.5"
   stroke="currentColor"
   class="w-6 h-6"
   version="1.1"
   id="svg4"
   xmlns="http://www.w3.org/2000/svg"
   xmlns:svg="http://www.w3.org/2000/svg">
  <defs
     id="defs8" />
  <path
     stroke-linecap="round"
     stroke-linejoin="round"
     d="m 1.1222339,12.847942 c 0,1.785069 1.2528957,3.340312 3.0201142,3.600262 1.2127314,0.178507 2.4377354,0.315733 3.6738959,0.411682 v 5.181161 l 4.547464,-4.547462 a 1.7025098,1.7025098 0 0 1 1.156947,-0.494242 53.866699,53.866699 0 0 0 6.336999,-0.551139 c 1.767217,-0.25995 3.020112,-1.814077 3.020112,-3.60138 V 6.1327344 c 0,-1.7873007 -1.252895,-3.3414266 -3.020112,-3.6013772 A 53.991654,53.991654 0 0 0 12,1.9590191 c -2.6686786,0 -5.2927304,0.195242 -7.8576519,0.5723381 C 2.3751296,2.7913078 1.1222339,4.3465494 1.1222339,6.1327344 v 6.7140896 z"
     id="path2"
     style="stroke-width:0.892535;stroke-dasharray:none;fill:#ffffff;stroke:#d97706;stroke-opacity:1;fill-opacity:1" />
  <g
     id="Layer-3"
     style="clip-rule:evenodd;fill:#ffffff;fill-rule:nonzero;stroke-linecap:round;stroke-linejoin:round"
     transform="matrix(0.00475353,0.00179616,-0.00179616,0.00475353,7.9682285,1.9267323)">
    <path
       d="m 1360.7899,-125.71515 -864.04496,498.8785 c 0,0 0.0513,438.44532 0.006,437.44112 L 7.7321381,1092.1901 v 585.0542 L 514.42218,1969.7519 1021.0591,1677.2443 v -3.66 l 179.3388,103.5628 26.3862,218.8985 146.1744,170.2085 132.3539,-167.6055 15.9347,-221.5405 197.5066,-114.0281 v 6.2501 l 506.6356,292.5601 506.6887,-292.5601 v -585.0015 l -506.6887,-292.56308 -0.5547,0.30126 V 373.16335 Z m 0,273.27598 627.3753,362.265 V 726.6642 l -603.037,-351.0974 -494.86319,271.12232 2.64255,305.37672 500.13514,-281.63976 595.1225,340.72912 v 223.0471 c -148.6582,85.8313 -478.7167,276.4402 -627.3753,362.272 L 937.237,1351.89 l 192.5911,-115.5339 229.0065,136.8725 471.185,-263.2142 L 1369.3518,865.18041 733.41457,1219.6285 V 509.82583 Z m 594.6338,1385.10787 c -2398.90536,-904.94529 -1199.45268,-452.4726 0,0 z m -1171.02978,4.3076 c -1618.21884,-907.81702 -809.109418,-453.9085 0,0 z"
       fill="#000000"
       fill-rule="nonzero"
       opacity="1"
       stroke="none"
       id="path300"
       style="fill:#3a3637;fill-opacity:1;stroke-width:1.98192" />
  </g>
</svg>
